#!OML:ASF F:\VICON\USERDATA\INSTALL\rory3\rory3.ASF
:FULLY-SPECIFIED
:DEGREES
105
root 7.72553 18.1129 6.43153 -163.942 -30.4117 175.055
lowerback -7.64876 -1.27184 -5.71298
upperback -2.98029 -1.48189 -2.12735
thorax 1.27573 -0.823123 0.876975
lowerneck -18.564 1.48168 2.99914
upperneck 23.5509 1.31146 -2.21838
head 10.6862 0.418667 -1.14321
rclavicle 1.79652e-014 1.59028e-014
rhumerus -37.0516 14.816 -96.3894
rradius 33.9109
rwrist -1.06396
rhand -22.2428 11.0835
rfingers 7.12502
rthumb 4.17434 -18.8553
lclavicle 1.79652e-014 1.59028e-014
lhumerus -33.9877 -16.2312 87.8138
lradius 36.6806
lwrist 10.8304
lhand -11.1274 26.98
lfingers 7.12502
lthumb 14.8977 56.4243
rfemur -17.3384 -7.27486 10.8688
rtibia 59.158
rfoot 7.09476 12.3549
rtoes -10.2747
lfemur -31.4551 9.63002 -31.4823
ltibia 29.1154
lfoot -13.8473 -12.8765
ltoes -11.5712
106
root 7.6565 18.116 6.35159 -163.847 -30.4374 174.842
lowerback -7.63792 -1.31396 -5.92682
upperback -2.9412 -1.52086 -2.1258
thorax 1.31679 -0.842836 0.993709
lowerneck -18.5063 1.44516 2.94098
upperneck 23.4384 1.30246 -2.28902
head 10.6334 0.402671 -1.1589
rclavicle 2.13694e-014 -6.75868e-015
rhumerus -36.9938 14.9427 -96.2494
rradius 34.1227
rwrist -1.21652
rhand -22.4432 10.8201
rfingers 7.12502
rthumb 3.98076 -19.1225
lclavicle 2.13694e-014 -6.75868e-015
lhumerus -33.7083 -16.2363 87.8026
lradius 37.2925
lwrist 11.0997
lhand -11.2105 27.001
lfingers 7.12502
lthumb 14.8177 56.4512
rfemur -18.5871 -7.54132 10.6614
rtibia 60.2587
rfoot 5.75321 12.1298
rtoes -10.8736
lfemur -30.8755 9.70252 -31.6995
ltibia 28.8091
lfoot -14.0969 -13.0164
ltoes -11.7518
107
root 7.58394 18.1197 6.27305 -163.946 -30.3791 174.504
lowerback -7.3606 -1.31513 -6.14586
upperback -2.83526 -1.51938 -2.22853
thorax 1.27463 -0.840951 1.0148
lowerneck -18.4863 1.42343 2.84877
upperneck 23.3685 1.27773 -2.19036
head 10.6017 0.397044 -1.11066
rclavicle 8.53532e-014 2.82274e-014
rhumerus -36.9036 14.919 -96.1398
rradius 34.2653
rwrist -1.19041
rhand -22.6176 10.7865
rfingers 7.12502
rthumb 3.81242 -19.1592
lclavicle 8.53532e-014 2.82274e-014
lhumerus -33.4533 -16.3424 87.7561
lradius 37.9316
lwrist 11.5057
lhand -11.1314 27.1498
lfingers 7.12502
lthumb 14.8939 56.5944
rfemur -19.5565 -7.73294 10.2589
rtibia 61.2505
rfoot 4.45202 11.7041
rtoes -11.4099
lfemur -30.0353 9.7675 -31.9698
ltibia 28.5777
lfoot -14.3498 -13.1396
ltoes -11.2813
108
root 7.51318 18.1171 6.19455 -163.96 -30.1831 173.675
lowerback -6.89679 -1.33872 -6.88094
upperback -2.69947 -1.53752 -2.44694
thorax 1.16764 -0.849853 1.20533
lowerneck -18.4983 1.47102 2.8719
upperneck 23.3906 1.32798 -2.15862
head 10.6137 0.425577 -1.09611
rclavicle -6.31141e-015 1.90833e-014
rhumerus -36.8302 14.934 -96.0737
rradius 34.3881
rwrist -1.13701
rhand -22.7445 10.9445
rfingers 7.12502
rthumb 3.68981 -19.0033
lclavicle -6.31141e-015 1.90833e-014
lhumerus -33.2495 -16.3441 87.6386
lradius 38.5335
lwrist 11.8246
lhand -11.142 26.9507
lfingers 7.12502
lthumb 14.8837 56.396
rfemur -20.3446 -7.95772 9.33119
rtibia 62.1354
rfoot 3.00916 11.3922
rtoes -11.8364
lfemur -29.1161 9.98771 -32.7268
ltibia 28.5404
lfoot -14.6663 -13.4176
ltoes -10.5087
109
root 7.45278 18.1128 6.12006 -163.903 -30.2594 173.52
lowerback -6.74396 -1.38955 -7.09384
upperback -2.67742 -1.6034 -2.42909
thorax 1.11531 -0.879958 1.34002
lowerneck -18.5956 1.451 2.78861
upperneck 23.4542 1.3149 -2.12977
head 10.6543 0.414967 -1.07411
rclavicle 3.95085e-015 4.21423e-014
rhumerus -36.6467 14.8885 -95.8378
rradius 34.3676
rwrist -1.09266
rhand -22.6056 10.8721
rfingers 7.12502
rthumb 3.82397 -19.0733
lclavicle 3.95085e-015 4.21423e-014
lhumerus -32.9993 -16.339 87.5892
lradius 39.0621
lwrist 11.9618
lhand -11.2857 26.693
lfingers 7.12502
lthumb 14.7453 56.1485
rfemur -21.5764 -8.20032 9.29612
rtibia 62.8704
rfoot 1.54407 10.9696
rtoes -11.773
lfemur -28.7883 10.1708 -32.889
ltibia 28.6278
lfoot -14.9742 -13.7348
ltoes -10.368
110
root 7.39967 18.1125 6.04918 -164.004 -30.7542 174.739
lowerback -7.03659 -1.44507 -6.01216
upperback -2.81879 -1.716 -2.08256
thorax 1.12631 -0.929945 1.08257
lowerneck -18.6411 1.39697 2.689
upperneck 23.4416 1.25296 -2.06306
head 10.6553 0.386871 -1.04206
rclavicle -3.77939e-014 3.02153e-014
rhumerus -36.4638 14.7813 -95.6175
rradius 34.281
rwrist -1.01916
rhand -22.4087 10.5648
rfingers 7.12502
rthumb 4.01414 -19.3772
lclavicle -3.77939e-014 3.02153e-014
lhumerus -32.6767 -16.2861 87.5017
lradius 39.605
lwrist 12.1115
lhand -11.3813 26.7105
lfingers 7.12502
lthumb 14.6532 56.1727
rfemur -23.4043 -8.38385 10.8794
rtibia 63.4238
rfoot -0.104424 10.1709
rtoes -12.1166
lfemur -29.2189 10.1802 -31.7788
ltibia 28.8406
lfoot -15.2022 -13.9462
ltoes -10.5642
111
root 7.3304 18.1089 5.97421 -163.967 -30.8756 174.878
lowerback -7.10358 -1.46437 -5.76915
upperback -2.84372 -1.7522 -2.03967
thorax 1.13555 -0.947993 0.987214
lowerneck -18.5633 1.36602 2.55896
upperneck 23.3816 1.22911 -1.97908
head 10.6161 0.37536 -0.993081
rclavicle 6.79844e-014 2.0276e-014
rhumerus -36.3449 14.6124 -95.3912
rradius 34.2299
rwrist -0.879267
rhand -22.4236 10.376
rfingers 7.12502
rthumb 3.99969 -19.5662
lclavicle 6.79844e-014 2.0276e-014
lhumerus -32.4162 -16.2593 87.4736
lradius 40.1716
lwrist 12.4782
lhand -11.3927 27.0008
lfingers 7.12502
lthumb 14.6421 56.4638
rfemur -24.7013 -8.6696 11.1376
rtibia 63.8693
rfoot -1.84382 9.51964
rtoes -12.5319
lfemur -29.0592 10.2748 -31.6984
ltibia 28.9967
lfoot -15.5821 -14.1085
ltoes -10.6502
